<mxfile host="65bd71144e">
    <diagram id="2pwP4SDgm4O252IBKQce" name="Page-1">
        <mxGraphModel dx="662" dy="513" grid="1" gridSize="10" guides="1" tooltips="1" connect="1" arrows="1" fold="1" page="1" pageScale="1" pageWidth="850" pageHeight="1100" math="0" shadow="0">
            <root>
                <mxCell id="0"/>
                <mxCell id="1" parent="0"/>
                <mxCell id="45" value="" style="whiteSpace=wrap;html=1;aspect=fixed;fillColor=#dae8fc;strokeColor=#6c8ebf;" parent="1" vertex="1">
                    <mxGeometry x="30" y="160" width="790" height="790" as="geometry"/>
                </mxCell>
                <mxCell id="46" value="" style="whiteSpace=wrap;html=1;fillColor=#f5f5f5;strokeColor=#666666;gradientColor=#b3b3b3;" parent="1" vertex="1">
                    <mxGeometry x="170" y="250" width="510" height="670" as="geometry"/>
                </mxCell>
                <mxCell id="47" value="Register" style="ellipse;whiteSpace=wrap;html=1;aspect=fixed;fillColor=#ffff88;strokeColor=#36393d;" parent="1" vertex="1">
                    <mxGeometry x="250" y="320" width="50" height="50" as="geometry"/>
                </mxCell>
                <mxCell id="48" value="Create shop" style="ellipse;whiteSpace=wrap;html=1;aspect=fixed;fillColor=#6a00ff;fontColor=#ffffff;strokeColor=#3700CC;" parent="1" vertex="1">
                    <mxGeometry x="250" y="525" width="50" height="50" as="geometry"/>
                </mxCell>
                <mxCell id="49" value="Add products" style="ellipse;whiteSpace=wrap;html=1;aspect=fixed;fillColor=#ffff88;strokeColor=#36393d;" parent="1" vertex="1">
                    <mxGeometry x="245" y="440" width="60" height="60" as="geometry"/>
                </mxCell>
                <mxCell id="50" value="Add employees" style="ellipse;whiteSpace=wrap;html=1;aspect=fixed;fillColor=#ffff88;strokeColor=#36393d;" parent="1" vertex="1">
                    <mxGeometry x="245" y="615" width="60" height="60" as="geometry"/>
                </mxCell>
                <mxCell id="51" value="View profile" style="ellipse;whiteSpace=wrap;html=1;aspect=fixed;fillColor=#ffff88;strokeColor=#36393d;" parent="1" vertex="1">
                    <mxGeometry x="245" y="860" width="50" height="50" as="geometry"/>
                </mxCell>
                <mxCell id="52" value="Login" style="ellipse;whiteSpace=wrap;html=1;aspect=fixed;fillColor=#6a00ff;fontColor=#ffffff;strokeColor=#3700CC;" parent="1" vertex="1">
                    <mxGeometry x="500" y="605" width="80" height="80" as="geometry"/>
                </mxCell>
                <mxCell id="53" value="Logout" style="ellipse;whiteSpace=wrap;html=1;aspect=fixed;fillColor=#ffff88;strokeColor=#36393d;" parent="1" vertex="1">
                    <mxGeometry x="255" y="390" width="40" height="40" as="geometry"/>
                </mxCell>
                <mxCell id="54" value="User" style="shape=umlActor;verticalLabelPosition=bottom;verticalAlign=top;html=1;outlineConnect=0;fillColor=#ffcd28;strokeColor=#d79b00;gradientColor=#ffa500;" parent="1" vertex="1">
                    <mxGeometry x="60" y="500" width="30" height="60" as="geometry"/>
                </mxCell>
                <mxCell id="55" value="" style="endArrow=classic;html=1;entryX=0;entryY=0.5;entryDx=0;entryDy=0;exitX=0.5;exitY=0.5;exitDx=0;exitDy=0;exitPerimeter=0;" parent="1" source="54" target="47" edge="1">
                    <mxGeometry width="50" height="50" relative="1" as="geometry">
                        <mxPoint x="120" y="524" as="sourcePoint"/>
                        <mxPoint x="237.32233047033628" y="366.33766952966374" as="targetPoint"/>
                    </mxGeometry>
                </mxCell>
                <mxCell id="56" value="" style="endArrow=classic;html=1;entryX=0;entryY=0.5;entryDx=0;entryDy=0;exitX=0.5;exitY=0.5;exitDx=0;exitDy=0;exitPerimeter=0;" parent="1" source="54" target="48" edge="1">
                    <mxGeometry width="50" height="50" relative="1" as="geometry">
                        <mxPoint x="120" y="520" as="sourcePoint"/>
                        <mxPoint x="170" y="470" as="targetPoint"/>
                    </mxGeometry>
                </mxCell>
                <mxCell id="57" value="" style="endArrow=classic;html=1;entryX=0;entryY=0.5;entryDx=0;entryDy=0;exitX=0.5;exitY=0.5;exitDx=0;exitDy=0;exitPerimeter=0;" parent="1" source="54" target="49" edge="1">
                    <mxGeometry width="50" height="50" relative="1" as="geometry">
                        <mxPoint x="120" y="520" as="sourcePoint"/>
                        <mxPoint x="260" y="540" as="targetPoint"/>
                    </mxGeometry>
                </mxCell>
                <mxCell id="58" value="" style="endArrow=classic;html=1;entryX=0;entryY=0.5;entryDx=0;entryDy=0;exitX=0.5;exitY=0.5;exitDx=0;exitDy=0;exitPerimeter=0;" parent="1" source="54" target="50" edge="1">
                    <mxGeometry width="50" height="50" relative="1" as="geometry">
                        <mxPoint x="120" y="520" as="sourcePoint"/>
                        <mxPoint x="170" y="470" as="targetPoint"/>
                    </mxGeometry>
                </mxCell>
                <mxCell id="59" value="" style="endArrow=classic;html=1;entryX=0;entryY=0.36;entryDx=0;entryDy=0;entryPerimeter=0;exitX=0.5;exitY=0.5;exitDx=0;exitDy=0;exitPerimeter=0;" parent="1" source="54" target="51" edge="1">
                    <mxGeometry width="50" height="50" relative="1" as="geometry">
                        <mxPoint x="120" y="520" as="sourcePoint"/>
                        <mxPoint x="170" y="470" as="targetPoint"/>
                    </mxGeometry>
                </mxCell>
                <mxCell id="60" value="" style="endArrow=classic;html=1;entryX=0;entryY=0.5;entryDx=0;entryDy=0;exitX=0.5;exitY=0.5;exitDx=0;exitDy=0;exitPerimeter=0;" parent="1" source="54" target="53" edge="1">
                    <mxGeometry width="50" height="50" relative="1" as="geometry">
                        <mxPoint x="130" y="520" as="sourcePoint"/>
                        <mxPoint x="410" y="560" as="targetPoint"/>
                    </mxGeometry>
                </mxCell>
                <mxCell id="62" value="Updates" style="ellipse;whiteSpace=wrap;html=1;aspect=fixed;fillColor=#ffff88;strokeColor=#36393d;" parent="1" vertex="1">
                    <mxGeometry x="250" y="710" width="50" height="50" as="geometry"/>
                </mxCell>
                <mxCell id="92" style="edgeStyle=elbowEdgeStyle;html=1;exitX=0.5;exitY=0;exitDx=0;exitDy=0;entryX=1;entryY=1;entryDx=0;entryDy=0;dashed=1;" parent="1" source="63" target="48" edge="1">
                    <mxGeometry relative="1" as="geometry">
                        <Array as="points">
                            <mxPoint x="380" y="680"/>
                        </Array>
                    </mxGeometry>
                </mxCell>
                <mxCell id="93" value="&lt;span style=&quot;color: rgb(0, 0, 0);&quot;&gt;&amp;lt;include&amp;gt;&lt;/span&gt;" style="edgeLabel;html=1;align=center;verticalAlign=middle;resizable=0;points=[];" parent="92" vertex="1" connectable="0">
                    <mxGeometry x="0.2568" relative="1" as="geometry">
                        <mxPoint as="offset"/>
                    </mxGeometry>
                </mxCell>
                <mxCell id="63" value="Notifications" style="ellipse;whiteSpace=wrap;html=1;aspect=fixed;fillColor=#ffff88;strokeColor=#36393d;" parent="1" vertex="1">
                    <mxGeometry x="240" y="770" width="70" height="70" as="geometry"/>
                </mxCell>
                <mxCell id="64" value="" style="endArrow=classic;html=1;exitX=0;exitY=0.5;exitDx=0;exitDy=0;entryX=0;entryY=1;entryDx=0;entryDy=0;entryPerimeter=0;" parent="1" source="62" target="54" edge="1">
                    <mxGeometry width="50" height="50" relative="1" as="geometry">
                        <mxPoint x="420" y="650" as="sourcePoint"/>
                        <mxPoint x="470" y="600" as="targetPoint"/>
                    </mxGeometry>
                </mxCell>
                <mxCell id="65" value="" style="endArrow=classic;html=1;exitX=0;exitY=0.5;exitDx=0;exitDy=0;entryX=0;entryY=1;entryDx=0;entryDy=0;entryPerimeter=0;" parent="1" source="63" target="54" edge="1">
                    <mxGeometry width="50" height="50" relative="1" as="geometry">
                        <mxPoint x="160" y="790" as="sourcePoint"/>
                        <mxPoint x="210" y="740" as="targetPoint"/>
                    </mxGeometry>
                </mxCell>
                <mxCell id="66" value="" style="endArrow=classic;html=1;exitX=1;exitY=0.5;exitDx=0;exitDy=0;entryX=0;entryY=0.5;entryDx=0;entryDy=0;" parent="1" source="48" target="52" edge="1">
                    <mxGeometry width="50" height="50" relative="1" as="geometry">
                        <mxPoint x="430" y="580" as="sourcePoint"/>
                        <mxPoint x="420" y="610" as="targetPoint"/>
                    </mxGeometry>
                </mxCell>
                <mxCell id="99" value="&lt;span style=&quot;color: rgb(0, 0, 0);&quot;&gt;&amp;lt;include&amp;gt;&lt;/span&gt;" style="edgeLabel;html=1;align=center;verticalAlign=middle;resizable=0;points=[];" parent="66" vertex="1" connectable="0">
                    <mxGeometry x="0.127" y="-2" relative="1" as="geometry">
                        <mxPoint as="offset"/>
                    </mxGeometry>
                </mxCell>
                <mxCell id="67" value="" style="endArrow=classic;html=1;exitX=1;exitY=0.5;exitDx=0;exitDy=0;entryX=0;entryY=0.5;entryDx=0;entryDy=0;" parent="1" source="49" target="52" edge="1">
                    <mxGeometry width="50" height="50" relative="1" as="geometry">
                        <mxPoint x="430" y="580" as="sourcePoint"/>
                        <mxPoint x="480" y="530" as="targetPoint"/>
                    </mxGeometry>
                </mxCell>
                <mxCell id="100" value="&lt;span style=&quot;color: rgb(0, 0, 0);&quot;&gt;&amp;lt;include&amp;gt;&lt;/span&gt;" style="edgeLabel;html=1;align=center;verticalAlign=middle;resizable=0;points=[];" parent="67" vertex="1" connectable="0">
                    <mxGeometry x="-0.4326" relative="1" as="geometry">
                        <mxPoint y="1" as="offset"/>
                    </mxGeometry>
                </mxCell>
                <mxCell id="68" value="" style="endArrow=classic;html=1;exitX=1;exitY=0.617;exitDx=0;exitDy=0;exitPerimeter=0;entryX=0;entryY=0.5;entryDx=0;entryDy=0;" parent="1" source="50" target="52" edge="1">
                    <mxGeometry width="50" height="50" relative="1" as="geometry">
                        <mxPoint x="430" y="670" as="sourcePoint"/>
                        <mxPoint x="480" y="620" as="targetPoint"/>
                    </mxGeometry>
                </mxCell>
                <mxCell id="95" value="&lt;span style=&quot;color: rgb(0, 0, 0);&quot;&gt;&amp;lt;include&amp;gt;&lt;/span&gt;" style="edgeLabel;html=1;align=center;verticalAlign=middle;resizable=0;points=[];" parent="68" vertex="1" connectable="0">
                    <mxGeometry x="0.1889" y="-2" relative="1" as="geometry">
                        <mxPoint as="offset"/>
                    </mxGeometry>
                </mxCell>
                <mxCell id="69" value="" style="endArrow=classic;html=1;exitX=1;exitY=0.5;exitDx=0;exitDy=0;entryX=0;entryY=0.5;entryDx=0;entryDy=0;" parent="1" source="51" target="52" edge="1">
                    <mxGeometry width="50" height="50" relative="1" as="geometry">
                        <mxPoint x="430" y="670" as="sourcePoint"/>
                        <mxPoint x="480" y="620" as="targetPoint"/>
                    </mxGeometry>
                </mxCell>
                <mxCell id="98" value="&lt;span style=&quot;color: rgb(0, 0, 0);&quot;&gt;&amp;lt;include&amp;gt;&lt;/span&gt;" style="edgeLabel;html=1;align=center;verticalAlign=middle;resizable=0;points=[];" parent="69" vertex="1" connectable="0">
                    <mxGeometry x="0.148" y="2" relative="1" as="geometry">
                        <mxPoint as="offset"/>
                    </mxGeometry>
                </mxCell>
                <mxCell id="70" value="" style="endArrow=classic;html=1;exitX=1;exitY=0.5;exitDx=0;exitDy=0;entryX=0;entryY=0.5;entryDx=0;entryDy=0;" parent="1" source="53" target="52" edge="1">
                    <mxGeometry width="50" height="50" relative="1" as="geometry">
                        <mxPoint x="430" y="670" as="sourcePoint"/>
                        <mxPoint x="480" y="620" as="targetPoint"/>
                    </mxGeometry>
                </mxCell>
                <mxCell id="101" value="&lt;span style=&quot;color: rgb(0, 0, 0);&quot;&gt;&amp;lt;include&amp;gt;&lt;/span&gt;" style="edgeLabel;html=1;align=center;verticalAlign=middle;resizable=0;points=[];" parent="70" vertex="1" connectable="0">
                    <mxGeometry x="-0.5421" y="3" relative="1" as="geometry">
                        <mxPoint as="offset"/>
                    </mxGeometry>
                </mxCell>
                <mxCell id="71" value="" style="endArrow=classic;html=1;exitX=1;exitY=0.5;exitDx=0;exitDy=0;entryX=0;entryY=0.5;entryDx=0;entryDy=0;" parent="1" source="62" target="52" edge="1">
                    <mxGeometry width="50" height="50" relative="1" as="geometry">
                        <mxPoint x="430" y="670" as="sourcePoint"/>
                        <mxPoint x="480" y="620" as="targetPoint"/>
                    </mxGeometry>
                </mxCell>
                <mxCell id="96" value="&lt;span style=&quot;color: rgb(0, 0, 0);&quot;&gt;&amp;lt;include&amp;gt;&lt;/span&gt;" style="edgeLabel;html=1;align=center;verticalAlign=middle;resizable=0;points=[];" parent="71" vertex="1" connectable="0">
                    <mxGeometry x="0.0462" y="-3" relative="1" as="geometry">
                        <mxPoint as="offset"/>
                    </mxGeometry>
                </mxCell>
                <mxCell id="72" value="" style="endArrow=classic;html=1;exitX=1;exitY=0.5;exitDx=0;exitDy=0;entryX=0;entryY=0.5;entryDx=0;entryDy=0;" parent="1" source="63" target="52" edge="1">
                    <mxGeometry width="50" height="50" relative="1" as="geometry">
                        <mxPoint x="430" y="670" as="sourcePoint"/>
                        <mxPoint x="420" y="620" as="targetPoint"/>
                    </mxGeometry>
                </mxCell>
                <mxCell id="97" value="&lt;span style=&quot;color: rgb(0, 0, 0);&quot;&gt;&amp;lt;include&amp;gt;&lt;/span&gt;" style="edgeLabel;html=1;align=center;verticalAlign=middle;resizable=0;points=[];" parent="72" vertex="1" connectable="0">
                    <mxGeometry x="0.0567" y="1" relative="1" as="geometry">
                        <mxPoint as="offset"/>
                    </mxGeometry>
                </mxCell>
                <mxCell id="74" value="&amp;lt;include&amp;gt;" style="endArrow=classic;html=1;exitX=0.5;exitY=1;exitDx=0;exitDy=0;entryX=0.5;entryY=0;entryDx=0;entryDy=0;dashed=1;" parent="1" source="49" target="48" edge="1">
                    <mxGeometry width="50" height="50" relative="1" as="geometry">
                        <mxPoint x="360" y="590" as="sourcePoint"/>
                        <mxPoint x="410" y="540" as="targetPoint"/>
                    </mxGeometry>
                </mxCell>
                <mxCell id="75" value="" style="endArrow=classic;html=1;entryX=0.5;entryY=1;entryDx=0;entryDy=0;exitX=0.5;exitY=0;exitDx=0;exitDy=0;dashed=1;" parent="1" source="50" target="48" edge="1">
                    <mxGeometry width="50" height="50" relative="1" as="geometry">
                        <mxPoint x="280" y="610" as="sourcePoint"/>
                        <mxPoint x="410" y="540" as="targetPoint"/>
                    </mxGeometry>
                </mxCell>
                <mxCell id="89" value="&lt;span style=&quot;color: rgb(0, 0, 0);&quot;&gt;&amp;lt;include&amp;gt;&lt;/span&gt;" style="edgeLabel;html=1;align=center;verticalAlign=middle;resizable=0;points=[];" parent="75" vertex="1" connectable="0">
                    <mxGeometry x="-0.15" relative="1" as="geometry">
                        <mxPoint as="offset"/>
                    </mxGeometry>
                </mxCell>
                <mxCell id="76" style="edgeStyle=elbowEdgeStyle;html=1;exitX=0.5;exitY=0;exitDx=0;exitDy=0;entryX=0.5;entryY=1;entryDx=0;entryDy=0;dashed=1;" parent="1" source="62" target="48" edge="1">
                    <mxGeometry relative="1" as="geometry">
                        <mxPoint x="350" y="710" as="sourcePoint"/>
                        <mxPoint x="350" y="575" as="targetPoint"/>
                        <Array as="points">
                            <mxPoint x="340" y="660"/>
                        </Array>
                    </mxGeometry>
                </mxCell>
                <mxCell id="94" value="&lt;span style=&quot;color: rgb(0, 0, 0);&quot;&gt;&amp;lt;include&amp;gt;&lt;/span&gt;" style="edgeLabel;html=1;align=center;verticalAlign=middle;resizable=0;points=[];" parent="76" vertex="1" connectable="0">
                    <mxGeometry x="0.2528" y="1" relative="1" as="geometry">
                        <mxPoint as="offset"/>
                    </mxGeometry>
                </mxCell>
                <mxCell id="83" value="Admin" style="shape=umlActor;verticalLabelPosition=bottom;verticalAlign=top;html=1;outlineConnect=0;fillColor=#ffcd28;strokeColor=#d79b00;gradientColor=#ffa500;" parent="1" vertex="1">
                    <mxGeometry x="760" y="570" width="30" height="60" as="geometry"/>
                </mxCell>
                <mxCell id="86" style="edgeStyle=none;html=1;exitX=0.5;exitY=0.5;exitDx=0;exitDy=0;exitPerimeter=0;entryX=1;entryY=0.5;entryDx=0;entryDy=0;" parent="1" source="83" target="87" edge="1">
                    <mxGeometry relative="1" as="geometry"/>
                </mxCell>
                <mxCell id="88" style="edgeStyle=none;html=1;entryX=1;entryY=0.5;entryDx=0;entryDy=0;" parent="1" source="87" target="52" edge="1">
                    <mxGeometry relative="1" as="geometry"/>
                </mxCell>
                <mxCell id="102" value="&lt;span style=&quot;color: rgb(0, 0, 0);&quot;&gt;&amp;lt;include&amp;gt;&lt;/span&gt;" style="edgeLabel;html=1;align=center;verticalAlign=middle;resizable=0;points=[];" parent="88" vertex="1" connectable="0">
                    <mxGeometry x="-0.1722" y="1" relative="1" as="geometry">
                        <mxPoint as="offset"/>
                    </mxGeometry>
                </mxCell>
                <mxCell id="87" value="Perform system upgrade" style="ellipse;whiteSpace=wrap;html=1;aspect=fixed;fillColor=#ffff88;strokeColor=#36393d;" parent="1" vertex="1">
                    <mxGeometry x="590" y="520" width="70" height="70" as="geometry"/>
                </mxCell>
                <mxCell id="104" value="&lt;b&gt;&lt;u&gt;INVEX USE CASE DIAGRAM&lt;/u&gt;&lt;/b&gt;" style="text;html=1;align=center;verticalAlign=middle;whiteSpace=wrap;rounded=0;" vertex="1" parent="1">
                    <mxGeometry x="335" y="190" width="180" height="30" as="geometry"/>
                </mxCell>
            </root>
        </mxGraphModel>
    </diagram>
</mxfile>